<?xml version="1.0" encoding="utf-8"?>
<!DOCTYPE svg PUBLIC "-//W3C//DTD SVG 1.1//EN" "http://www.w3.org/Graphics/SVG/1.1/DTD/svg11.dtd">
<svg version="1.1" xmlns="http://www.w3.org/2000/svg" viewBox="0 0 42 42" xml:space="preserve">
  <g>
  <rect x="7" y="9" width="12" height="25" style="stroke:#3D6480;stroke-width:1.2;fill-opacity:1;stroke-opacity:1" fill="#EFF9FE"/>
  <path d="M11 12.8h6zm0 3h6zm0 3h6zm0 3h6zm0 3h6z" fill="none" stroke="#3D6480" stroke-width=".5"/>
  <path d="M8.8 12.5l.5 .5l1 -1m-1.5 3.5l.5 .5l1 -1m-1.5 3.5l.5 .5l1 -1m-1.5 6.5l.5 .5l1 -1" fill="none" stroke="GREEN" stroke-width=".2"/>
  <path d="M9 21.2l1 1l-.5 -.5l-.5 .5l1 -1" fill="none" stroke="RED" stroke-width=".2"/>
  <line x1="9.5" x2="9.5" y1="26" y2="32" stroke="#3D6480" stroke-dasharray=".8" stroke-width=".5"/>
  <text x="11" y="30" font-size=".2em" fill="darkmagenta">CDC</text>

  <path fill="#0CB20F" d="M28.399 15v4.532l-1.954-1.954l-1.344 1.344l4.248 4.248l4.248-4.248l-1.344-1.344L30.3 19.851v-4.532
		c0-2.953-2.403-5.356-5.356-5.356h-0.638v1.9h0.638C26.849 11.862 28.399 13.412 28.399 15.318z"/>

  <text x="21" y="35" font-size=".8em" fill="darkorange">Key</text>
  </g>
</svg>
